# xmcd
#
# Track frame offsets: 
#        182
#        11707
#        23092
#        37540
#        46510
#        58262
#        71447
#        82295
#        92102
#        104070
#
# Disc length: 1555 seconds
#
# Revision: 0
# Processed by: cddbd v1.4PL0 Copyright (c) Steve Scherf et al.
# Submitted via: ExactAudioCopy v0.90b3
#
DISCID=7a06110a
DTITLE=Patsy Cline - Walkin' After Midnight
DYEAR=1993
DGENRE=Country
TTITLE0=Walkin' After Midnight
TTITLE1=Just Out Of Reach (Of My Two Open Arms)
TTITLE2=Then You'll Know
TTITLE3=Try Again
TTITLE4=A Poor Man's Roses (Or A Rich Man's Gold)
TTITLE5=If I Could See The World (Through The Eyes Of A Child)
TTITLE6=I Can See An Angel
TTITLE7=I'm Blue Again
TTITLE8=Today, Tomorrow And Forever
TTITLE9=Just A Closer Walk With Thee
EXTD=
EXTT0=
EXTT1=
EXTT2=
EXTT3=
EXTT4=
EXTT5=
EXTT6=
EXTT7=
EXTT8=
EXTT9=
PLAYORDER=
